<svg xmlns="http://www.w3.org/2000/svg" viewBox="0 0 320 65.09737158535178" style="position: absolute; top: 50%; left: 50%; transform: translate(-50%, -50%) scale(0.919531); z-index: 0; cursor: pointer;"><defs id="SvgjsDefs1323"></defs><g id="SvgjsG1324" featurekey="symbolFeature-0" transform="matrix(1.1624530640241388,0,0,1.1624530640241388,-8.122655972711017,-25.573967408531054)" fill="#005792"><g xmlns="http://www.w3.org/2000/svg" transform="translate(0,-952.36218)"><path style="font-size:medium;font-style:normal;font-variant:normal;font-weight:normal;font-stretch:normal;text-indent:0;text-align:start;text-decoration:none;line-height:normal;letter-spacing:normal;word-spacing:normal;text-transform:none;direction:ltr;block-progression:tb;writing-mode:lr-tb;text-anchor:start;baseline-shift:baseline;opacity:1;color:;fill:#0d6efd;fill-opacity:1;stroke:none;stroke-width:2;marker:none;visibility:visible;display:inline;overflow:visible;enable-background:accumulate;font-family:Sans;-inkscape-font-specification:Sans" d="M 18.84375 22 C 15.783255 22 13.28125 24.47466 13.28125 27.53125 L 13.28125 63.03125 A 1.0001 1.0001 0 1 0 15.28125 63.03125 L 15.28125 27.53125 C 15.28125 25.55532 16.858085 24 18.84375 24 L 81.15625 24 C 83.141915 24 84.71875 25.55532 84.71875 27.53125 L 84.71875 63.03125 A 1.0001 1.0001 0 1 0 86.71875 63.03125 L 86.71875 27.53125 C 86.71875 24.47466 84.216745 22 81.15625 22 L 18.84375 22 z M 33.65625 31.4375 A 1.0043849 1.0043849 0 0 0 33.84375 33.4375 L 36.6875 33.4375 L 41.78125 49 A 1.0001 1.0001 0 0 0 42.75 49.6875 L 58.375 49.6875 A 1.0001 1.0001 0 0 0 59.3125 49 L 63.125 37.375 A 1.0001 1.0001 0 0 0 62.1875 36.0625 L 43.21875 36.0625 A 1.0001 1.0001 0 1 0 43.21875 38.0625 L 60.78125 38.0625 L 57.65625 47.6875 L 43.46875 47.6875 L 38.375 32.125 A 1.0001 1.0001 0 0 0 37.4375 31.4375 L 33.84375 31.4375 A 1.0001 1.0001 0 0 0 33.65625 31.4375 z M 43.28125 53.28125 C 41.393687 53.28125 39.875 54.83335 39.875 56.71875 C 39.875 58.60415 41.393687 60.125 43.28125 60.125 C 45.168814 60.125 46.71875 58.60415 46.71875 56.71875 C 46.71875 54.83335 45.168814 53.28125 43.28125 53.28125 z M 57.53125 53.28125 C 55.643686 53.28125 54.0625 54.83335 54.0625 56.71875 C 54.0625 58.60415 55.643686 60.125 57.53125 60.125 C 59.418813 60.125 60.9375 58.60415 60.9375 56.71875 C 60.9375 54.83335 59.418813 53.28125 57.53125 53.28125 z M 43.28125 55.28125 C 44.087324 55.28125 44.71875 55.91355 44.71875 56.71875 C 44.71875 57.52385 44.087324 58.125 43.28125 58.125 C 42.475177 58.125 41.875 57.52385 41.875 56.71875 C 41.875 55.91355 42.475177 55.28125 43.28125 55.28125 z M 57.53125 55.28125 C 58.337323 55.28125 58.9375 55.91355 58.9375 56.71875 C 58.9375 57.52385 58.337323 58.125 57.53125 58.125 C 56.725176 58.125 56.0625 57.52385 56.0625 56.71875 C 56.0625 55.91355 56.725176 55.28125 57.53125 55.28125 z M 7.84375 66.40625 A 1.0001 1.0001 0 0 0 7.03125 67.28125 C 6.7100805 69.81385 8.2059138 72.33115 9.9375 74.34375 C 10.803293 75.34995 11.737041 76.2324 12.65625 76.875 C 13.575459 77.5176 14.434216 78 15.40625 78 L 84.59375 78 C 85.565784 78 86.424541 77.5176 87.34375 76.875 C 88.262959 76.2324 89.196707 75.34995 90.0625 74.34375 C 91.794086 72.33115 93.28992 69.81385 92.96875 67.28125 A 1.0001 1.0001 0 0 0 91.96875 66.40625 L 58.4375 66.40625 A 1.0001 1.0001 0 0 0 57.5625 66.9375 L 56.59375 68.71875 L 43.40625 68.71875 L 42.4375 66.9375 A 1.0001 1.0001 0 0 0 41.5625 66.40625 L 8.03125 66.40625 A 1.0001 1.0001 0 0 0 7.84375 66.40625 z M 9.21875 68.40625 L 40.96875 68.40625 L 41.9375 70.1875 A 1.0001 1.0001 0 0 0 42.8125 70.71875 L 57.1875 70.71875 A 1.0001 1.0001 0 0 0 58.0625 70.1875 L 59.03125 68.40625 L 90.78125 68.40625 C 90.607122 69.84215 89.8377 71.5804 88.5625 73.0625 C 87.799099 73.9498 86.938538 74.7249 86.1875 75.25 C 85.436462 75.7751 84.731951 76 84.59375 76 L 15.40625 76 C 15.268049 76 14.563538 75.7751 13.8125 75.25 C 13.061462 74.7249 12.200901 73.9498 11.4375 73.0625 C 10.1623 71.5804 9.3928785 69.84215 9.21875 68.40625 z " transform="translate(0,952.36218)"></path></g></g><g id="SvgjsG1325" featurekey="nameFeature-0" transform="matrix(1.1337868873020747,0,0,1.1337868873020747,118.14058911556977,2.6666648645609428)" fill="#0d6efd"><path d="M38.2 40 l-8.24 0 l0 -10.84 c0 -0.8 0.24 -3.6 -2.88 -3.6 c-0.64 0 -2.36 0.16 -2.88 2 c-0.12 0.48 -0.12 0.88 -0.12 1.4 l0 11.04 l-8.24 0 l0 -11.2 c0 -0.48 0 -0.8 -0.12 -1.28 c-0.48 -1.76 -2.12 -1.96 -2.76 -1.96 c-0.56 0 -2.28 0.2 -2.84 1.92 c-0.08 0.24 -0.2 0.64 -0.2 1.28 l0 11.24 l-8.28 0 l0 -20.72 l7.96 0 l0 2.96 c0.48 -0.84 0.8 -1.24 1.12 -1.56 c0.84 -0.8 2.56 -1.88 5.4 -1.88 c0.72 0 4.16 0 6.16 2.24 c0.32 0.32 0.6 0.8 1.04 1.6 c0.36 -0.84 0.8 -1.28 1.08 -1.56 c0.96 -1 2.68 -2.32 6.04 -2.28 c0.52 0 1.48 -0.04 2.72 0.32 c1.04 0.28 3.64 1.16 4.64 4.2 c0.4 1.2 0.4 2.32 0.4 3.6 l0 13.08 z M63.519999999999996 31.119999999999997 l-14.44 0 s0 0.96 0.2 1.6 c0.28 0.8 1.08 2.32 3.28 2.28 c1.28 0 1.96 -0.44 2.36 -0.8 c0.84 -0.68 1.24 -1.6 1.4 -1.88 l6.76 2.84 c-0.2 0.32 -0.44 0.76 -1 1.4 c-1.44 1.68 -3.08 2.6 -3.8 2.96 c-1 0.48 -3.16 1.32 -6.12 1.32 c-1.72 0 -3.36 -0.24 -4.92 -0.88 c-4.28 -1.76 -6.56 -5.92 -6.56 -10.44 c0 -4.28 1.96 -6.92 3.16 -8.08 c2.96 -2.84 7.08 -3.04 8.24 -3.04 c1.4 0 5.64 0.2 8.64 3.44 c1 1.08 1.76 2.44 2.2 3.84 c0.56 1.8 0.6 3.56 0.6 5.44 z M55.16 26.759999999999998 c-0.04 -0.24 -0.04 -0.64 -0.2 -1.16 c-0.56 -1.72 -2.08 -1.96 -2.72 -1.96 c-0.64 0.04 -1.04 0.2 -1.28 0.32 c-1.52 0.68 -1.72 2.36 -1.8 2.8 l6 0 z M80.6 25.8 c-0.4 -0.04 -0.8 -0.08 -1.2 -0.08 c-0.64 -0.04 -4.16 -0.24 -5.16 2.56 c-0.24 0.68 -0.24 1.24 -0.24 1.96 l0 9.76 l-8.2 0 l0 -20.72 l7.92 0 l0 1.8 c0.4 -0.36 0.68 -0.6 1.12 -0.88 c1.84 -1.28 3.6 -1.36 5.76 -1.36 l0 6.96 z M103.28 34.480000000000004 c-0.56 1.12 -0.96 1.76 -1.32 2.2 c-1.24 1.6 -4.2 4.12 -9.36 4.12 c-2.36 0 -3.8 -0.48 -4.72 -0.88 c-5.92 -2.48 -6.32 -8.52 -6.32 -10.4 c0 -0.68 0.08 -2.36 0.68 -4.16 c2.28 -6.72 8.8 -7 10.88 -7 c3.64 0 5.8 1.12 7.08 2 c0.32 0.24 1.24 0.92 2 1.84 c0.44 0.56 0.68 0.96 1.04 1.56 l-6.24 3.52 c-0.16 -0.52 -0.32 -0.92 -0.4 -1.08 c-0.28 -0.6 -1.16 -2.04 -3.16 -2.04 c-0.88 0 -1.48 0.32 -1.76 0.52 c-2 1.36 -1.96 4.76 -1.96 5.08 c0 0.24 -0.04 2.36 0.96 3.6 c0.16 0.24 0.48 0.56 1.16 0.84 c0.24 0.08 0.76 0.32 1.48 0.32 c2.68 -0.04 3.48 -3.04 3.64 -3.52 z M127.12 40 l-8.12 0 l0 -1.6 c-0.32 0.24 -0.72 0.56 -1.52 0.96 c-0.88 0.44 -2.76 1.12 -5.36 1.12 c-0.52 0 -1.92 0 -3.32 -0.52 c-2.68 -1.04 -4.12 -3.36 -4.12 -6.16 c0 -1.12 0.24 -3.6 2.84 -5.36 c1.72 -1.16 3.92 -1.44 5.92 -1.72 c1.16 -0.16 2.4 -0.32 3.56 -0.56 c0.52 -0.12 1.08 -0.24 1.6 -0.4 c0 -0.08 0 -0.64 -0.12 -0.96 c-0.24 -0.84 -0.84 -1.44 -2.68 -1.44 c-0.6 0 -1 0.08 -1.2 0.12 c-1.28 0.32 -1.4 1.4 -1.52 1.84 l-7.72 0.2 c0.08 -0.44 0.2 -0.84 0.28 -1.24 c0.2 -0.8 0.64 -2.24 2.28 -3.52 s4.16 -2.16 8.64 -2.16 c3.24 0 7.64 0.52 9.24 3.88 c0.44 0.92 0.6 1.76 0.6 3.68 l0 11.28 c0 1.52 0.2 1.84 0.72 2.56 z M118.56 30.36 c-1.04 0.36 -2.08 0.68 -3.12 0.96 c-0.88 0.2 -2.12 0.48 -2.76 1.28 c-0.08 0.12 -0.36 0.48 -0.36 0.96 c0 0.64 0.52 1.6 2.04 1.6 c0.72 0 1.36 -0.24 2 -0.56 c2.32 -1.24 2.2 -3.28 2.2 -4.24 z M151.36 40 l-7.96 0 l-0.04 -1.48 c-0.08 0.08 -0.44 0.52 -0.84 0.84 c-1.16 0.84 -2.92 1.16 -4.36 1.16 c-2.2 0 -3.76 -0.72 -4.48 -1.16 c-4.76 -2.72 -4.88 -9 -4.84 -10.2 c0 -0.72 0 -2.64 0.72 -4.64 c0.64 -1.72 2.84 -5.84 8.36 -5.84 c0.64 0 2.48 0.04 4.12 1.12 c0.36 0.24 0.56 0.4 1.12 0.92 l0 -8.96 l8.2 0 l0 28.24 z M143.36 29.560000000000002 c0 -1.16 -0.08 -2.36 -0.64 -3.4 c-0.76 -1.36 -2.04 -1.6 -2.6 -1.6 c-0.6 0 -1.24 0.24 -1.72 0.6 c-0.92 0.72 -1.44 2.04 -1.44 4.44 c0 1.28 0.2 3.08 1.16 4.08 c0.48 0.52 1.32 0.88 2.08 0.88 c0.8 0 1.4 -0.36 1.6 -0.52 c1.44 -1 1.56 -2.96 1.56 -4.48 z M178.04000000000002 29.68 c0 1.12 -0.2 4.68 -2.68 7.44 c-1.44 1.6 -4.52 3.68 -9.68 3.68 c-1.2 0 -4.92 -0.04 -7.96 -2.44 c-1.52 -1.2 -3.84 -3.84 -3.84 -8.56 c0 -2.88 0.88 -5.72 2.84 -7.84 c1.4 -1.52 4.36 -3.6 9.4 -3.56 c1.08 0 5.36 0.12 8.44 2.8 c2.32 2.04 3.48 5.4 3.48 8.48 z M169.72000000000003 29.48 c0 -3.12 -1 -4.56 -2.48 -5.08 c-0.6 -0.2 -1.12 -0.2 -1.36 -0.2 c-1.44 0.04 -2.24 0.76 -2.6 1.16 c-0.64 0.68 -1.2 2.08 -1.2 4.2 c0 2.04 0.52 3.44 1.04 4.16 c0.32 0.44 0.76 0.8 1.24 1 c0.24 0.12 0.84 0.28 1.56 0.28 c0.96 0 1.84 -0.28 2.48 -0.92 c0.72 -0.72 1.32 -2.28 1.32 -4.6 z"></path></g></svg>