<?xml version="1.0" standalone="no"?>
<!DOCTYPE svg PUBLIC "-//W3C//DTD SVG 20010904//EN"
 "http://www.w3.org/TR/2001/REC-SVG-20010904/DTD/svg10.dtd">
<svg version="1.0" xmlns="http://www.w3.org/2000/svg"
 width="347.000000pt" height="326.000000pt" viewBox="0 0 347.000000 326.000000"
 preserveAspectRatio="xMidYMid meet">
<metadata>
Created by potrace 1.16, written by Peter Selinger 2001-2019
</metadata>
<g transform="translate(0.000000,326.000000) scale(0.100000,-0.100000)"
fill="#0d6efd" stroke="none">
<path d="M124 3181 c-57 -35 -66 -117 -17 -163 23 -22 33 -23 211 -28 l186 -5
276 -840 c151 -462 281 -855 289 -873 27 -65 -19 -62 951 -62 760 0 885 2 910
15 20 10 34 30 48 67 48 130 422 1278 422 1296 0 33 -21 70 -49 89 -24 17 -92
18 -1074 21 -721 2 -1061 -1 -1088 -8 -77 -21 -103 -112 -50 -172 l29 -33 987
-3 986 -2 -7 -23 c-3 -12 -74 -229 -156 -482 -82 -253 -156 -481 -164 -507
l-16 -48 -773 0 c-727 0 -775 1 -783 18 -5 9 -130 386 -277 837 -147 451 -274
837 -283 858 -25 63 -41 67 -299 67 -206 0 -231 -2 -259 -19z"/>
<path d="M1111 796 c-24 -8 -68 -31 -97 -51 -246 -170 -198 -549 83 -655 76
-29 202 -24 278 9 290 129 295 537 8 677 -46 23 -73 29 -142 31 -55 2 -102 -2
-130 -11z m179 -218 c113 -57 122 -194 18 -271 -38 -28 -128 -29 -165 -1 -52
39 -68 71 -68 134 0 43 5 66 21 87 22 31 97 73 129 73 11 0 41 -10 65 -22z"/>
<path d="M2646 786 c-107 -45 -199 -147 -227 -251 -19 -69 -7 -192 25 -255 37
-75 106 -143 180 -177 54 -25 72 -28 161 -28 89 0 106 3 157 28 231 113 282
419 101 600 -71 72 -139 100 -248 104 -78 3 -98 0 -149 -21z m219 -214 c44
-25 77 -96 72 -151 -9 -81 -67 -133 -150 -135 -103 -1 -180 85 -162 181 8 43
78 118 117 126 35 7 89 -2 123 -21z"/>
</g>
</svg>
